<svg xmlns="http://www.w3.org/2000/svg" viewBox="0 0 62.65 62.65"><defs><style>.cls-1{fill:none;stroke:#0c92ff;stroke-miterlimit:10;stroke-width:2px;}</style></defs><title>consistent_executionAsset 7</title><g id="Layer_2" data-name="Layer 2"><g id="Layer_1-2" data-name="Layer 1"><line class="cls-1" x1="24.95" y1="55.27" x2="13.75" y2="55.27"/><line class="cls-1" x1="48.9" y1="55.27" x2="37.7" y2="55.27"/><line class="cls-1" x1="24.95" y1="31.32" x2="13.75" y2="31.32"/><line class="cls-1" x1="48.9" y1="31.32" x2="37.7" y2="31.32"/><line class="cls-1" x1="55.27" y1="13.75" x2="55.27" y2="24.95"/><path class="cls-1" d="M13.75,7.37a6.38,6.38,0,1,0-6.38,6.38A6.38,6.38,0,0,0,13.75,7.37Z"/><path class="cls-1" d="M37.7,7.37a6.38,6.38,0,1,0-6.38,6.38A6.38,6.38,0,0,0,37.7,7.37Z"/><path class="cls-1" d="M61.65,7.37a6.38,6.38,0,1,0-6.38,6.38A6.38,6.38,0,0,0,61.65,7.37Z"/><path class="cls-1" d="M13.75,31.32A6.38,6.38,0,1,0,7.37,37.7,6.38,6.38,0,0,0,13.75,31.32Z"/><path class="cls-1" d="M37.7,31.32a6.38,6.38,0,1,0-6.38,6.38A6.38,6.38,0,0,0,37.7,31.32Z"/><path class="cls-1" d="M61.65,31.32a6.38,6.38,0,1,0-6.38,6.38A6.38,6.38,0,0,0,61.65,31.32Z"/><path class="cls-1" d="M13.75,55.27a6.38,6.38,0,1,0-6.38,6.38A6.38,6.38,0,0,0,13.75,55.27Z"/><path class="cls-1" d="M37.7,55.27a6.38,6.38,0,1,0-6.38,6.38A6.38,6.38,0,0,0,37.7,55.27Z"/><path class="cls-1" d="M61.65,55.27a6.38,6.38,0,1,0-6.38,6.38A6.38,6.38,0,0,0,61.65,55.27Z"/><line class="cls-1" x1="13.75" y1="7.37" x2="24.95" y2="7.37"/><line class="cls-1" x1="37.7" y1="7.37" x2="48.9" y2="7.37"/><line class="cls-1" x1="7.37" y1="48.9" x2="7.37" y2="37.7"/></g></g></svg>