<svg xmlns="http://www.w3.org/2000/svg" viewBox="0 0 67.77 67.77"><defs><style>.cls-1{fill:none;stroke:#0c92ff;stroke-miterlimit:10;stroke-width:2px;}</style></defs><title>ease_of_expansionAsset 5</title><g id="Layer_2" data-name="Layer 2"><g id="Layer_1-2" data-name="Layer 1"><polyline class="cls-1" points="48.04 10.92 56.84 10.92 56.84 19.72"/><path class="cls-1" d="M41.13,33.88a7.26,7.26,0,1,0-7.25,7.26A7.26,7.26,0,0,0,41.13,33.88Z"/><line class="cls-1" x1="56.84" y1="10.92" x2="42.94" y2="24.82"/><polyline class="cls-1" points="56.84 48.05 56.84 56.84 48.04 56.84"/><line class="cls-1" x1="56.84" y1="56.84" x2="42.94" y2="42.95"/><polyline class="cls-1" points="19.73 56.84 10.93 56.84 10.93 48.05"/><line class="cls-1" x1="10.93" y1="56.84" x2="24.82" y2="42.95"/><polyline class="cls-1" points="10.93 19.72 10.93 10.92 19.73 10.92"/><line class="cls-1" x1="10.93" y1="10.92" x2="24.82" y2="24.82"/><polyline class="cls-1" points="60.13 27.66 66.35 33.88 60.13 40.1"/><line class="cls-1" x1="66.35" y1="33.88" x2="46.7" y2="33.88"/><polyline class="cls-1" points="40.1 60.13 33.88 66.35 27.66 60.13"/><line class="cls-1" x1="33.88" y1="66.35" x2="33.88" y2="46.7"/><polyline class="cls-1" points="7.64 40.11 1.41 33.89 7.64 27.66"/><line class="cls-1" x1="1.41" y1="33.89" x2="21.07" y2="33.89"/><polyline class="cls-1" points="27.67 7.63 33.89 1.41 40.11 7.63"/><line class="cls-1" x1="33.89" y1="1.41" x2="33.89" y2="21.07"/></g></g></svg>