<svg xmlns="http://www.w3.org/2000/svg" viewBox="0 0 64.87 52.29"><defs><style>.cls-1{fill:none;stroke:#0c92ff;stroke-miterlimit:10;stroke-width:2px;}</style></defs><title>enhance_communicationAsset 4</title><g id="Layer_2" data-name="Layer 2"><g id="Layer_1-2" data-name="Layer 1"><path class="cls-1" d="M1,6.87V21a5.86,5.86,0,0,0,5.86,5.86v9.42l9.41-9.42H36.38A5.86,5.86,0,0,0,42.24,21V6.87A5.86,5.86,0,0,0,36.38,1H6.86A5.86,5.86,0,0,0,1,6.87Z"/><path class="cls-1" d="M42.24,14.64H58a5.87,5.87,0,0,1,5.86,5.86V34.61A5.87,5.87,0,0,1,58,40.47v9.41l-9.42-9.41H28.48a5.87,5.87,0,0,1-5.86-5.86V26.83"/><line class="cls-1" x1="9.53" y1="7.93" x2="35.26" y2="7.93"/><line class="cls-1" x1="9.53" y1="13.71" x2="35.26" y2="13.71"/><line class="cls-1" x1="9.53" y1="19.5" x2="35.26" y2="19.5"/><line class="cls-1" x1="30.38" y1="26.83" x2="56.11" y2="26.83"/><line class="cls-1" x1="30.38" y1="32.62" x2="56.11" y2="32.62"/><line class="cls-1" x1="42.24" y1="21.05" x2="56.11" y2="21.05"/></g></g></svg>