<svg xmlns="http://www.w3.org/2000/svg" viewBox="0 0 227.62 37.93"><defs><style>.cls-1{fill:#0c92ff;}.cls-2{fill:#fff;}</style></defs><title>mapped_logoAsset 1</title><g id="Layer_2" data-name="Layer 2"><g id="Layer_1-2" data-name="Layer 1"><path class="cls-1" d="M42.53,5.26l11.59,6.15V30.15l-9.4-5L42.53,24l-2.18,1.17L29.38,31l-11-5.83L16.23,24,14.05,25.2l-9.4,5V11.46L16.24,5.3l11,5.79,2.18,1.15,2.17-1.15Zm0-5.26L29.38,7,16.23,0,0,8.66V37.93l16.23-8.62,13.16,7,13.15-7,16.23,8.62V8.62Z"/><path class="cls-2" d="M78.26,7.4h4.15V11h.28a6.07,6.07,0,0,1,6-3.9,6,6,0,0,1,6,3.9h.23a6.94,6.94,0,0,1,6.67-3.9c4,0,6.85,2.53,6.85,7.6V29.6h-4.32V15.12c0-3-1.88-4.28-4.17-4.28a4.25,4.25,0,0,0-4.45,4.61V29.6H91.2V14.84a3.82,3.82,0,0,0-4.06-4c-2.46,0-4.55,2.08-4.55,5.07V29.6H78.26Z"/><path class="cls-2" d="M112.22,18.54c0-7.2,3.94-11.43,9.31-11.43A6.69,6.69,0,0,1,127.92,11h.26V7.4h4.32V29.6h-4.22V26.15h-.36A6.79,6.79,0,0,1,121.5,30c-5.39,0-9.28-4.31-9.28-11.5m16,0c0-4.64-2-7.72-5.8-7.72s-5.87,3.31-5.87,7.72,2,7.85,5.87,7.85,5.8-3.18,5.8-7.85"/><path class="cls-2" d="M137.53,7.4h4.22V11h.36a6.67,6.67,0,0,1,6.38-3.89c5.36,0,9.32,4.23,9.32,11.43S153.91,30,148.53,30a6.79,6.79,0,0,1-6.42-3.89h-.26V37.93h-4.32Zm10,19c3.86,0,5.89-3.4,5.89-7.85s-2-7.72-5.89-7.72-5.79,3.08-5.79,7.72,2.08,7.85,5.79,7.85"/><path class="cls-2" d="M161.55,7.4h4.22V11h.36a6.67,6.67,0,0,1,6.38-3.89c5.36,0,9.32,4.23,9.32,11.43S177.93,30,172.55,30a6.79,6.79,0,0,1-6.42-3.89h-.26V37.93h-4.32Zm10,19c3.86,0,5.88-3.4,5.88-7.85s-2-7.72-5.88-7.72-5.8,3.08-5.8,7.72,2.09,7.85,5.8,7.85"/><path class="cls-2" d="M184.53,18.64c0-6.82,4.07-11.53,10.26-11.53,5,0,9.83,3.13,9.83,11.16V19.8H188.84c.11,4.28,2.6,6.68,6.3,6.68,2.46,0,4.34-1.07,5.12-3.17l4.09.74c-1,3.62-4.41,6-9.25,6-6.55,0-10.57-4.51-10.57-11.41m15.86-2.08c0-3.39-2.21-5.88-5.57-5.88a6,6,0,0,0-6,5.88Z"/><path class="cls-2" d="M207.34,18.54c0-7.2,3.94-11.43,9.31-11.43A6.69,6.69,0,0,1,223,11h.26V0h4.32V29.6H223.4V26.15H223A6.79,6.79,0,0,1,216.62,30c-5.39,0-9.28-4.31-9.28-11.5m16,0c0-4.64-2-7.72-5.8-7.72s-5.87,3.31-5.87,7.72,2,7.85,5.87,7.85,5.8-3.18,5.8-7.85"/></g></g></svg>