<svg xmlns="http://www.w3.org/2000/svg" viewBox="0 0 87.94 48.46"><defs><style>.cls-1{fill:none;stroke:#0c92ff;stroke-miterlimit:10;stroke-width:2px;}</style></defs><title>shipping_savingsAsset 2</title><g id="Layer_2" data-name="Layer 2"><g id="Layer_1-2" data-name="Layer 1"><polyline class="cls-1" points="22.88 37.97 14.49 37.97 14.49 1 57.1 1 57.1 37.97 36.66 37.97"/><polyline class="cls-1" points="64.35 37.97 57.1 37.97 57.1 8.66 74.58 8.66 81 23.29 86.94 23.29 86.94 37.97 78.13 37.97"/><polygon class="cls-1" points="63 14.3 70.07 14.3 73.18 21.38 63 21.49 63 14.3"/><path class="cls-1" d="M78.48,40.21a7.25,7.25,0,1,1-.25-1.88A6.88,6.88,0,0,1,78.48,40.21Z"/><path class="cls-1" d="M74,40.21a2.77,2.77,0,0,1-5.54,0,3,3,0,0,1,.13-.85,2.77,2.77,0,0,1,5.31.13A2.84,2.84,0,0,1,74,40.21Z"/><path class="cls-1" d="M37,40.21A7.22,7.22,0,1,1,36.66,38,7.25,7.25,0,0,1,37,40.21Z"/><path class="cls-1" d="M32.54,40.21a2.77,2.77,0,1,1-5.54,0,3,3,0,0,1,.13-.85,2.77,2.77,0,0,1,5.27,0A2.66,2.66,0,0,1,32.54,40.21Z"/><line class="cls-1" x1="29.77" y1="8.66" y2="8.66"/><line class="cls-1" x1="20.33" y1="27.12" y2="27.12"/><line class="cls-1" x1="29.77" y1="17.89" x2="8.1" y2="17.89"/></g></g></svg>